<svg xmlns="http://www.w3.org/2000/svg" viewBox="0 0 1255.46 517.72"><defs><style>.cls-1{fill:#5d6c6e;}.cls-2{fill:#0096cc;fill-rule:evenodd;}.cls-3{fill:#afadae;}</style></defs><title>logo-notag-full-color</title><g id="Layer_2" data-name="Layer 2"><g id="Layer_1-2" data-name="Layer 1"><path class="cls-1" d="M341.75,397H295.91L396.64,243.9c4.64-7.07,8.46-11.08,17.57-11.08h34L341.75,397Z"/><path class="cls-1" d="M520.16,397a288.59,288.59,0,0,1-40.56-.58C465,395.34,457.77,386,457.77,368.67V202H478.2a18,18,0,0,1,13,5.66,18.61,18.61,0,0,1,5.66,13.6v25.56h23.28v7.93a18.38,18.38,0,0,1-5.67,13.89A19.1,19.1,0,0,1,500.85,274h-4v83.92c0,6.44,3.77,9.68,11.37,9.68h11.91V397Z"/><path class="cls-1" d="M280.92,350.52h28.36q-6.25,23.82-23.82,36.3-17.56,13.06-44.23,13.07-32.37,0-50.47-21-18.15-20.4-18.15-58.41,0-36.3,17.57-56.72,18.15-21,50.47-21,34.05,0,52.75,20.42,18.15,21,18.15,58.41v6.25a9.35,9.35,0,0,1-.58,4h-98.1c.39,11.76,3.2,20.43,8.52,26.09,4.89,6.05,12.24,9.1,22.12,9.1,6.38,0,11.9-1.31,16.4-4a8.39,8.39,0,0,0,3.15-2c.92-1,2-2,3.1-3.14.38-1.11,1.79-2.61,4.25-4.5s6-2.86,10.51-2.86Zm-68.05-44.23H270.7c-.77-10.21-3.38-17.76-7.93-22.7-4.94-5.27-11.91-7.93-21-7.93-8.27,0-15.1,2.66-20.37,7.93s-8.13,12.87-8.52,22.7Z"/><path class="cls-1" d="M0,397V222.37A19.68,19.68,0,0,1,6,207.9a22,22,0,0,1,14.47-6.53H42l79.41,134.39V201.37h39.69V397H119.68l-80-134.39V397Z"/><path class="cls-1" d="M1209.53,288.72q-8.49-11.89-23.23-11.9-15.88,0-24.39,11.32c-5.71,7.55-8.51,18-8.51,31.22V397h-38.57V202h19.26a19.34,19.34,0,0,1,19.31,19.26V266c6.82-11.33,16.45-18.54,28.94-21.54a57.2,57.2,0,0,1,35.71,2.28,63.69,63.69,0,0,1,26.67,21.53q10.74,14.74,10.74,40.85V397h-38V318.78a81.46,81.46,0,0,0-1.4-15.59,39.5,39.5,0,0,0-6.54-14.47Z"/><path class="cls-1" d="M1104.44,397a288.59,288.59,0,0,1-40.56-.58c-14.56-1.11-21.82-10.41-21.82-27.78V202h20.42a18,18,0,0,1,13,5.66,18.61,18.61,0,0,1,5.66,13.6v25.56h23.28v7.93a18.38,18.38,0,0,1-5.67,13.89,19.1,19.1,0,0,1-13.64,5.37h-4v83.92c0,6.44,3.77,9.68,11.37,9.68h11.91V397Z"/><path class="cls-1" d="M950.4,390.79a69.37,69.37,0,0,1-25.22,7.64,220.39,220.39,0,0,1-23.56,1.46c-13.6,0-25.51-3.73-35.72-11.09s-15.29-19.55-15.29-36.58c0-15.88,4.6-27.2,13.89-34s21-11.33,35.42-13.6a33,33,0,0,0,6.83-.87c2.66-.54,5.66-1,9-1.41,16.64-2.27,25-7.16,25-14.76,0-5.66-2.95-9.34-8.81-11A58.34,58.34,0,0,0,915.8,274a41.68,41.68,0,0,0-14.18,2.28,15.33,15.33,0,0,0-9,8.51h-38a43.47,43.47,0,0,1,15.87-28.94q15.31-13.06,43.65-13.06c21.2,0,37.07,3.63,47.67,10.79q16.41,11.32,16.41,31.75v51.63c0,15.1-2.71,26.91-8.23,35.43S958,387,950.4,390.79Zm-9-69.74c-5.33,2.61-12.68,5.08-22.12,7.35l-13.06,2.86c-6.78,1.89-11.72,4.31-14.77,7.36a23.41,23.41,0,0,0-4,12.48c0,5.67,1.75,10.22,5.14,13.6,3.38,3.05,8.32,4.55,14.76,4.55q15.82,0,24.92-9.1t9.1-24.92V321.05Z"/><path class="cls-1" d="M1028.3,202h-20.42a19.07,19.07,0,0,0-13.6,5.37,17.63,17.63,0,0,0-5.66,13.31V397h39.68V202Z"/><path class="cls-1" d="M534.05,397V222.37A20.32,20.32,0,0,1,554.47,202h19.84v72.59h80.53V202h40.84V397H654.84V310.26H574.31V397Z"/><path class="cls-1" d="M812.89,350.52h28.36q-6.24,23.82-23.81,36.3-17.57,13.06-44.23,13.07-32.38,0-50.48-21-18.15-20.4-18.15-58.41,0-36.3,17.57-56.72,18.15-21,50.48-21,34,0,52.75,20.42,18.14,21,18.14,58.41v6.25a9.35,9.35,0,0,1-.58,4H744.85c.38,11.76,3.19,20.43,8.52,26.09,4.89,6.05,12.24,9.1,22.11,9.1,6.39,0,11.91-1.31,16.41-4a8.28,8.28,0,0,0,3.14-2c.92-1,2-2,3.1-3.14.39-1.11,1.79-2.61,4.26-4.5s6-2.86,10.5-2.86Zm-68-44.23h57.83c-.77-10.21-3.39-17.76-7.94-22.7-4.93-5.27-11.9-7.93-21-7.93-8.28,0-15.1,2.66-20.37,7.93s-8.14,12.87-8.52,22.7Z"/><path class="cls-2" d="M412.12,397C280.86,250.5,229.19,82.75,296.77,22c63.38-57,209.25.42,335.77,128.34,5.15-4.23,7.55-10.38,7.6-20.13l29.23,47.3-65.93-17.64c12.2-2.09,21.07-4.17,27-8C521,46.34,398.4.42,344.08,49.24c-60,54-13.92,203.15,102.94,333.19q6.68,7.43,13.46,14.54Z"/><path class="cls-3" d="M45.08,443.47v72.78H29.74V443.47H2.26V429.85H73.79v13.62Zm88.3,0v20.24h28.54v13H133.38v25.89h39.15v13.63H118v-86.4H173.2v13.62Zm149-9-6.32,12.66c-3.43-3.42-8.92-5.11-16.51-5.11q-10.79,0-17.7,9t-6.9,22.9q0,13.88,6.4,22a20.58,20.58,0,0,0,17.07,8.13c8.16,0,14.52-2.9,19.13-8.71l7.12,12.38q-9.36,10-27.48,10T229,505.8q-10-11.9-10-32.49,0-19.17,11.13-32.05t28.45-12.88c9.91,0,17.84,2,23.78,6.08Zm100.8,81.79V477.32H348.78v38.93H333.44v-86.4h15.34v33.86h34.39V429.85h15.16v86.4Zm125.94,1.19-41.93-54.68v53.55H452.42V429.85h7.39L500.61,482V429.85h14.74v87.59Zm56.21-45.13q0-18.45,10.13-31.23t27-12.76q18.63,0,28.49,11.56t9.84,32.43q0,20.88-10.28,33.15T601.3,517.72q-17.4,0-26.68-12.14t-9.3-33.27Zm15.92,0q0,15.15,5.13,23.47a16.48,16.48,0,0,0,14.93,8.31c7.67,0,13.52-2.69,17.55-8.13s6-13.31,6-23.65q0-30.36-22.41-30.36-10.26,0-15.74,8.21c-3.67,5.5-5.5,12.86-5.5,22.15Zm109.54,43.94v-86.4h15.34v72.77h39.06v13.63Zm94.54-43.94q0-18.45,10.12-31.23t27-12.76q18.63,0,28.49,11.56t9.84,32.43q0,20.88-10.28,33.15t-29.24,12.26q-17.38,0-26.67-12.14t-9.3-33.27Zm15.92,0q0,15.15,5.13,23.47a16.48,16.48,0,0,0,14.92,8.31c7.67,0,13.53-2.69,17.56-8.13s6-13.31,6-23.65q0-30.36-22.41-30.36c-6.84,0-12.1,2.74-15.74,8.21s-5.5,12.86-5.5,22.15ZM974.6,436.87l-6.42,12.32a30.83,30.83,0,0,0-8.38-4.81,25.75,25.75,0,0,0-9.73-2.37q-12.74,0-20.1,8.63t-7.39,23.16q0,13.79,7.22,22c4.84,5.51,11.38,8.25,19.68,8.25,5.47,0,9.95-1.49,13.5-4.47v-17H951V469.55h27.3v38.69a39.59,39.59,0,0,1-14.13,7A61.89,61.89,0,0,1,947,517.72q-18.59,0-29.46-12.18t-10.88-32.17q0-20,11.85-32.49t31.91-12.5c9.48,0,17.53,2.81,24.18,8.49Zm54,79.38v-86.4h15.34v86.4Zm85-72.78v20.24h28.55v13h-28.55v25.89h39.16v13.63h-54.5v-86.4h55.16v13.62Zm85.64,68,5.68-13.75q9.06,6.38,17.85,6.36c9,0,13.51-3.14,13.51-9.42a13.39,13.39,0,0,0-3.18-8.44c-2.11-2.67-6.5-5.67-13.13-9s-11.09-6.06-13.39-8.19a22.34,22.34,0,0,1-5.31-7.66,25.25,25.25,0,0,1-1.85-9.78,21.45,21.45,0,0,1,7.35-16.63q7.34-6.62,18.84-6.6c10,0,17.31,1.87,22,5.6l-4.67,13.2a28.92,28.92,0,0,0-17-5.78c-3.55,0-6.29,1-8.24,2.8a9.66,9.66,0,0,0-2.92,7.29q0,7.42,16.45,15.46,8.67,4.23,12.5,7.81a23.76,23.76,0,0,1,5.84,8.32,26.87,26.87,0,0,1,2,10.59,21.31,21.31,0,0,1-8.29,17.27q-8.28,6.78-22.21,6.78a39.53,39.53,0,0,1-21.82-6.24Z"/></g></g></svg>